<svg width="16" height="16" viewBox="0 0 16 16" fill="none" xmlns="http://www.w3.org/2000/svg">
<path d="M4.40504 4.40812H4.60619C4.91189 4.40812 5.15969 4.17263 5.15969 3.8823V2.43124V1.88847C5.15969 1.59814 4.91189 1.36267 4.60619 1.36267H4.40504C4.09936 1.36267 3.85156 1.59814 3.85156 1.88847V2.43126V3.8823C3.85156 4.17263 4.09936 4.40812 4.40504 4.40812Z" fill="#291F4F" fill-opacity="0.6"/>
<path d="M11.5057 4.39543H11.7068C12.0125 4.39543 12.2603 4.15996 12.2603 3.8696V2.29385V1.87575C12.2603 1.58544 12.0125 1.34998 11.7068 1.34998H11.5057C11.1999 1.34998 10.9521 1.58544 10.9521 1.87575V2.29385V3.86957C10.9522 4.15996 11.2 4.39543 11.5057 4.39543Z" fill="#291F4F" fill-opacity="0.6"/>
<path d="M14.13 2.43115H12.7095V4.00687C12.7095 4.53251 12.2594 4.82243 11.7062 4.82243H11.505C10.9517 4.82243 10.5016 4.39479 10.5016 3.86916V2.43115H5.61012V3.88219C5.61012 4.40782 5.16001 4.83546 4.60671 4.83546H4.40555C3.85228 4.83546 3.40217 4.40782 3.40217 3.88219V2.43115H1.86955C1.37339 2.43115 0.969727 2.81464 0.969727 3.28601V13.6156C0.969727 14.0869 1.37339 14.4704 1.86955 14.4704H14.13C14.6262 14.4704 15.0298 14.0869 15.0298 13.6156V3.28601C15.0299 2.81466 14.6262 2.43115 14.13 2.43115ZM14.13 13.6156H1.86958L1.86955 5.81495H14.1302L14.1307 13.6155C14.1306 13.6155 14.1305 13.6156 14.13 13.6156Z" fill="#291F4F" fill-opacity="0.6"/>
<path d="M8.4646 8.43152H10.0803C10.1443 8.43152 10.1963 8.38219 10.1963 8.32135V6.99225C10.1963 6.93141 10.1443 6.88208 10.0803 6.88208H8.4646C8.40056 6.88208 8.34863 6.93141 8.34863 6.99225V8.32135C8.34863 8.38219 8.40056 8.43152 8.4646 8.43152Z" fill="#291F4F" fill-opacity="0.6"/>
<path d="M11.1013 8.43152H12.717C12.7811 8.43152 12.833 8.38219 12.833 8.32135V6.99225C12.833 6.93141 12.7811 6.88208 12.717 6.88208H11.1013C11.0373 6.88208 10.9854 6.93141 10.9854 6.99225V8.32135C10.9854 8.38219 11.0373 8.43152 11.1013 8.43152Z" fill="#291F4F" fill-opacity="0.6"/>
<path d="M3.19019 10.6077H4.80585C4.86989 10.6077 4.92182 10.5583 4.92182 10.4975V9.1684C4.92182 9.10756 4.86989 9.05823 4.80585 9.05823H3.19019C3.12614 9.05823 3.07422 9.10756 3.07422 9.1684V10.4975C3.07422 10.5583 3.12614 10.6077 3.19019 10.6077Z" fill="#291F4F" fill-opacity="0.6"/>
<path d="M5.82789 10.6077H7.44354C7.50759 10.6077 7.55951 10.5583 7.55951 10.4975V9.1684C7.55951 9.10756 7.50759 9.05823 7.44354 9.05823H5.82789C5.76384 9.05823 5.71191 9.10756 5.71191 9.1684V10.4975C5.71191 10.5583 5.76384 10.6077 5.82789 10.6077Z" fill="#291F4F" fill-opacity="0.6"/>
<path d="M8.4646 10.6077H10.0802C10.1443 10.6077 10.1962 10.5583 10.1962 10.4975V9.1684C10.1962 9.10756 10.1443 9.05823 10.0802 9.05823H8.4646C8.40056 9.05823 8.34863 9.10756 8.34863 9.1684V10.4975C8.34863 10.5583 8.40056 10.6077 8.4646 10.6077Z" fill="#291F4F" fill-opacity="0.6"/>
<path d="M11.1013 10.6077H12.717C12.7811 10.6077 12.833 10.5583 12.833 10.4975V9.1684C12.833 9.10756 12.7811 9.05823 12.717 9.05823H11.1013C11.0373 9.05823 10.9854 9.10756 10.9854 9.1684V10.4975C10.9854 10.5583 11.0373 10.6077 11.1013 10.6077Z" fill="#291F4F" fill-opacity="0.6"/>
<path d="M4.80582 11.2338H3.19019C3.12614 11.2338 3.07422 11.2831 3.07422 11.3439V12.6731C3.07422 12.7339 3.12614 12.7832 3.19019 12.7832H4.80585C4.86989 12.7832 4.92182 12.7339 4.92182 12.6731V11.3439C4.92179 11.2831 4.86986 11.2338 4.80582 11.2338Z" fill="#291F4F" fill-opacity="0.6"/>
<path d="M7.44354 11.2338H5.82789C5.76384 11.2338 5.71191 11.2831 5.71191 11.3439V12.6731C5.71191 12.7339 5.76384 12.7832 5.82789 12.7832H7.44354C7.50759 12.7832 7.55951 12.7339 7.55951 12.6731V11.3439C7.55951 11.2831 7.50759 11.2338 7.44354 11.2338Z" fill="#291F4F" fill-opacity="0.6"/>
<path d="M10.0803 11.2338H8.4646C8.40056 11.2338 8.34863 11.2831 8.34863 11.3439V12.6731C8.34863 12.7339 8.40056 12.7832 8.4646 12.7832H10.0803C10.1443 12.7832 10.1963 12.7339 10.1963 12.6731V11.3439C10.1963 11.2831 10.1443 11.2338 10.0803 11.2338Z" fill="#291F4F" fill-opacity="0.6"/>
<path d="M12.717 11.2338H11.1013C11.0373 11.2338 10.9854 11.2831 10.9854 11.3439V12.6731C10.9854 12.7339 11.0373 12.7832 11.1013 12.7832H12.717C12.7811 12.7832 12.833 12.7339 12.833 12.6731V11.3439C12.833 11.2831 12.7811 11.2338 12.717 11.2338Z" fill="#291F4F" fill-opacity="0.6"/>
</svg>
